<svg id="Camada_1" data-name="Camada 1" xmlns="http://www.w3.org/2000/svg" viewBox="0 0 783.01 783"><defs><style>.cls-1{fill:#f3c011;}</style></defs><path class="cls-1" d="M1340.3,447.25c0-.17-.08-.36-.13-.53q-2-8-4.27-15.89c-.31-1.05-.59-2.09-.9-3.14-1.24-4.12-2.58-8.19-4-12.26a390.26,390.26,0,0,0-28.25-64.27,190.44,190.44,0,0,1-81.38,18.13c-107.67,0-195.76-88.09-195.76-198.22,0-5.54.29-11,.72-16.44-2.76-.46-5.5-1-8.28-1.41l-2.41-.38c-5.74-.82-11.53-1.5-17.35-2.08l-1.53-.14c-12.1-1.14-24.32-1.91-36.71-1.91a389.44,389.44,0,0,0-127.25,21.35c-1.13.38-2.27.75-3.39,1.15-3.93,1.39-7.8,2.88-11.67,4.39-2.5,1-5,1.93-7.5,3s-4.91,2.12-7.37,3.2c-3.81,1.67-7.61,3.36-11.38,5.15-1.07.51-2.12,1.06-3.2,1.58A389.18,389.18,0,0,0,625.53,337.08c-.1.18-.21.35-.32.52q-4.25,7-8.18,14.22c-.53,1-1.07,1.91-1.59,2.87-2,3.77-4,7.59-5.86,11.42a390.44,390.44,0,0,0,15.06,375.71l-.1,0c6.36,10.6,13.43,20.89,20.88,31,.5.66,1,1.34,1.46,2,3.47,4.65,7.09,9.21,10.79,13.73l1,1.2c7.74,9.36,15.83,18.53,24.59,27.3a390,390,0,0,0,105.08,74.89c1.08.52,2.13,1.06,3.2,1.58,3.77,1.79,7.57,3.49,11.38,5.15,2.46,1.08,4.9,2.16,7.37,3.19s5,2,7.5,3c3.87,1.52,7.74,3,11.67,4.4,1.12.39,2.26.75,3.39,1.14a390.06,390.06,0,0,0,254.5,0l3.39-1.14c3.92-1.4,7.8-2.88,11.66-4.4,2.5-1,5-1.94,7.51-3s4.91-2.11,7.36-3.19c3.81-1.66,7.62-3.36,11.38-5.15,1.08-.52,2.14-1.06,3.2-1.58a390,390,0,0,0,180-180c.53-1.07,1.07-2.15,1.59-3.23,1.79-3.76,3.48-7.55,5.14-11.36,1.09-2.45,2.18-4.9,3.21-7.38s2-5,3-7.48c1.51-3.87,3-7.76,4.4-11.69.39-1.13.76-2.24,1.14-3.38a389.14,389.14,0,0,0,10-220.22ZM1013.09,752.13H956.45v51.44H894.59V752.13h-63V364.44h63v-48h61.86v48H1002c46.2,0,88.59,37.94,89,85.79.26,35.68-20.89,59.55-31.33,57.19,35.1,7.95,70.56,61,70.56,122.08C1130.22,693.84,1089.53,752.13,1013.09,752.13Z" transform="translate(-568.59 -148.71)"/><path class="cls-1" d="M1017,459.72c0-18.69-15.4-33.54-42.9-33.54H909.2v67.08h70.94C1006.54,493.26,1017,475.67,1017,459.72Z" transform="translate(-568.59 -148.71)"/><path class="cls-1" d="M971.93,551.56H909.75V677.49h61.64c54.44,0,77-26.4,77-62.69C1048.38,583.46,1025.28,551.56,971.93,551.56Z" transform="translate(-568.59 -148.71)"/></svg>