<?xml version="1.0" encoding="UTF-8" standalone="no"?>
<svg
   xmlns:dc="http://purl.org/dc/elements/1.1/"
   xmlns:cc="http://creativecommons.org/ns#"
   xmlns:rdf="http://www.w3.org/1999/02/22-rdf-syntax-ns#"
   xmlns:svg="http://www.w3.org/2000/svg"
   xmlns="http://www.w3.org/2000/svg"
   id="svg5265"
   version="1.1"
   viewBox="0 0 151.68617 35.63055"
   height="35.63055mm"
   width="151.68617mm">
  <defs
     id="defs5259" />
  <metadata
     id="metadata5262">
    <rdf:RDF>
      <cc:Work
         rdf:about="">
        <dc:format>image/svg+xml</dc:format>
        <dc:type
           rdf:resource="http://purl.org/dc/dcmitype/StillImage" />
        <dc:title></dc:title>
      </cc:Work>
    </rdf:RDF>
  </metadata>
  <g
     transform="translate(-32.258104,-122.70258)"
     id="layer1">
    <g
       transform="matrix(0.35277777,0,0,-0.35277777,42.44174,149.31596)"
       id="g4503">
      <path
         id="path4505"
         style="fill:#58595b;fill-opacity:1;fill-rule:nonzero;stroke:none"
         d="m 0,0 c 11.337,0 16.033,5.497 16.033,13.055 0,6.528 -4.81,13.171 -15.918,13.171 h -12.95 L -12.835,0 Z M -12.949,38.363 H 1.824 c 5.497,0 7.672,3.665 7.672,6.986 0,3.893 -3.206,6.985 -8.932,6.985 H -12.949 Z M 18.631,36.76 C 25.941,35.104 33.325,24.048 33.325,11.337 33.325,-2.062 24.851,-14.2 8.933,-14.2 h -37.8 v 80.735 h 35.5 c 9.62,0 18.448,-7.902 18.522,-17.865 0.055,-7.432 -4.35,-12.403 -6.524,-11.91" />
    </g>
    <path
       id="path4507"
       style="fill:#58595b;fill-opacity:1;fill-rule:nonzero;stroke:none;stroke-width:0.35277775"
       d="m 41.5424,130.81647 h -4.23333 v -8.11389 h 4.23333 z" />
    <path
       id="path4509"
       style="fill:#58595b;fill-opacity:1;fill-rule:nonzero;stroke:none;stroke-width:0.35277775"
       d="m 41.5424,158.33313 h -4.23333 v -8.46666 h 4.23333 z" />
    <path
       id="path4511"
       style="fill:#58595b;fill-opacity:1;fill-rule:nonzero;stroke:none;stroke-width:0.35277775"
       d="m 57.16093,132.06565 h 5.61552 v 21.93678 h -5.61552 z m -0.44415,-5.65608 c 0,-1.81786 1.45415,-3.31258 3.2318,-3.31258 1.77765,0 3.19158,1.49472 3.19158,3.31258 0,1.81786 -1.41393,3.27237 -3.19158,3.27237 -1.77765,0 -3.2318,-1.45451 -3.2318,-3.27237" />
    <g
       transform="matrix(0.35277777,0,0,-0.35277777,68.21053,148.06363)"
       id="g4513">
      <path
         id="path4515"
         style="fill:#58595b;fill-opacity:1;fill-rule:nonzero;stroke:none"
         d="m 0,0 c 7.673,-3.321 13.513,-5.039 21.3,-5.039 7.329,0 10.192,2.748 10.192,5.955 0,3.55 -3.55,5.153 -13.169,7.215 C 4.924,11.108 -4.81,15.46 -4.81,27.484 c 0,11.223 9.276,19.01 23.706,19.01 9.733,0 17.521,-2.29 24.277,-5.039 L 37.905,29.774 c -6.069,2.291 -13.169,4.009 -19.353,4.009 -6.07,0 -9.161,-2.176 -9.161,-5.497 0,-3.436 3.778,-5.039 13.741,-7.099 14.43,-2.979 22.789,-8.018 22.789,-19.354 0,-11.796 -9.046,-19.583 -24.964,-19.583 -10.765,0 -17.75,1.489 -26.912,5.955 z" />
    </g>
    <g
       transform="matrix(0.35277777,0,0,-0.35277777,106.7019,149.92192)"
       id="g4517">
      <path
         id="path4519"
         style="fill:#58595b;fill-opacity:1;fill-rule:nonzero;stroke:none"
         d="m 0,0 c -5.611,-7.673 -14.43,-12.481 -24.049,-12.481 -18.78,0 -34.012,14.313 -34.012,32.063 0,17.865 15.232,32.18 34.012,32.18 9.964,0 18.666,-4.81 24.278,-12.368 l -10.306,-9.505 c -3.092,4.581 -8.246,7.558 -13.972,7.558 -10.077,0 -18.322,-8.016 -18.322,-17.865 0,-9.734 8.245,-17.75 18.322,-17.75 5.726,0 10.88,2.979 13.972,7.673 z" />
    </g>
    <path
       id="path4521"
       style="fill:#58595b;fill-opacity:1;fill-rule:nonzero;stroke:none;stroke-width:0.35277775"
       d="m 135.58695,132.06565 h 5.61517 v 21.93678 h -5.61517 z m -0.4445,-5.65608 c 0,-1.81786 1.45415,-3.31258 3.2318,-3.31258 1.77765,0 3.19158,1.49472 3.19158,3.31258 0,1.81786 -1.41393,3.27237 -3.19158,3.27237 -1.77765,0 -3.2318,-1.45451 -3.2318,-3.27237" />
    <g
       transform="matrix(0.35277777,0,0,-0.35277777,166.59351,141.76119)"
       id="g4523">
      <path
         id="path4525"
         style="fill:#58595b;fill-opacity:1;fill-rule:nonzero;stroke:none"
         d="M 0,0 V -34.699 H -15.918 V 0 c 0,9.62 -4.695,14.313 -13.514,14.313 -5.61,0 -10.191,-1.832 -13.742,-4.922 v -44.09 h -15.918 v 62.182 h 15.918 V 23.59 c 4.58,3.206 10.308,5.038 16.606,5.038 C -8.36,28.628 0,20.155 0,0" />
    </g>
    <g
       transform="matrix(0.35277777,0,0,-0.35277777,177.80383,136.71153)"
       id="g4527">
      <path
         id="path4529"
         style="fill:#58595b;fill-opacity:1;fill-rule:nonzero;stroke:none"
         d="m 0,0 v -21.987 c 0,-11.108 1.831,-14.315 9.849,-14.315 2.748,0 5.153,0.344 7.329,0.573 v -11.91 c -0.689,-0.229 -5.497,-2.29 -14.429,-2.29 -10.423,0 -18.781,6.527 -18.781,19.582 V 0 h -8.819 v 13.169 h 8.819 V 37.333 H 0 V 13.169 H 17.406 V 0 Z" />
    </g>
    <g
       transform="matrix(0.35277777,0,0,-0.35277777,119.95827,149.33042)"
       id="g4531">
      <path
         id="path4533"
         style="fill:#58595b;fill-opacity:1;fill-rule:nonzero;stroke:none"
         d="m 0,0 c -5.743,0 -10.885,2.609 -14.25,6.65 -2.489,3.055 -3.979,6.915 -3.979,11.118 0,9.733 8.131,17.749 18.324,17.749 5.743,0 10.884,-2.609 14.25,-6.65 2.489,-3.055 3.977,-6.915 3.977,-11.117 C 18.322,8.017 10.191,0 0,0 m 28.407,35.48 c -9.753,0 -18.257,5.613 -22.48,13.854 -1.895,0.307 -3.839,0.487 -5.827,0.487 -0.837,0 -1.664,-0.032 -2.487,-0.087 -10e-4,0.031 -0.005,0.064 -0.002,0.095 -4.132,-0.288 -8.06,-1.276 -11.658,-2.831 -11.282,-4.758 -19.25,-15.065 -19.828,-27.406 -0.037,-0.61 -0.061,-1.223 -0.061,-1.842 0,-17.75 15.194,-32.064 33.973,-32.064 0.885,0 1.758,0.042 2.625,0.102 -0.004,-0.034 -0.004,-0.068 -0.008,-0.101 9.448,0.657 17.817,4.944 23.544,11.413 0.111,0.122 0.214,0.249 0.323,0.374 0.207,0.239 0.413,0.48 0.613,0.727 0.178,0.219 0.349,0.444 0.521,0.667 0.125,0.164 0.252,0.326 0.375,0.493 0.2,0.271 0.395,0.547 0.585,0.826 0.092,0.131 0.184,0.262 0.273,0.395 0.194,0.292 0.383,0.589 0.569,0.889 0.082,0.134 0.166,0.268 0.248,0.405 0.171,0.283 0.334,0.571 0.495,0.86 0.097,0.173 0.193,0.346 0.285,0.52 0.13,0.245 0.257,0.493 0.38,0.742 0.124,0.247 0.244,0.496 0.362,0.747 0.079,0.172 0.158,0.345 0.235,0.519 0.161,0.365 0.316,0.734 0.465,1.107 0.021,0.057 0.045,0.112 0.066,0.168 1.367,3.492 2.123,7.249 2.123,11.207 0,6.575 -2.095,12.734 -5.681,17.734 z" />
    </g>
  </g>
</svg>
