<?xml version="1.0" encoding="UTF-8" standalone="no"?>
<svg
   xmlns:dc="http://purl.org/dc/elements/1.1/"
   xmlns:cc="http://creativecommons.org/ns#"
   xmlns:rdf="http://www.w3.org/1999/02/22-rdf-syntax-ns#"
   xmlns:svg="http://www.w3.org/2000/svg"
   xmlns="http://www.w3.org/2000/svg"
   id="svg4654"
   version="1.1"
   viewBox="0 0 35.723335 35.722984"
   height="35.722984mm"
   width="35.723335mm">
  <defs
     id="defs4648">
    <clipPath
       id="clipPath4541"
       clipPathUnits="userSpaceOnUse">
      <path
         id="path4539"
         d="M 234.84,436.69 H 336.103 V 335.427 H 234.84 Z" />
    </clipPath>
    <clipPath
       id="clipPath4545"
       clipPathUnits="userSpaceOnUse">
      <path
         id="path4543"
         d="M 234.84,335.427 H 336.103 V 436.69 H 234.84 Z" />
    </clipPath>
  </defs>
  <metadata
     id="metadata4651">
    <rdf:RDF>
      <cc:Work
         rdf:about="">
        <dc:format>image/svg+xml</dc:format>
        <dc:type
           rdf:resource="http://purl.org/dc/dcmitype/StillImage" />
        <dc:title></dc:title>
      </cc:Work>
    </rdf:RDF>
  </metadata>
  <g
     transform="translate(-95.53119,-104.51351)"
     id="layer1">
    <g
       transform="matrix(0.35277777,0,0,-0.35277777,12.684858,258.56782)"
       id="g4535">
      <g
         id="g4537" />
      <g
         id="g4565">
        <g
           id="g4563"
           clip-path="url(#clipPath4541)">
          <g
             id="g4561">
            <g
               id="g4559"
               clip-path="url(#clipPath4545)">
              <g
                 id="g4549"
                 transform="translate(334.625,398.1504)">
                <path
                   id="path4547"
                   style="fill:#f1c40f;fill-opacity:1;fill-rule:nonzero;stroke:none"
                   d="M 0,0 C -0.171,0.69 -0.355,1.375 -0.553,2.054 -0.592,2.19 -0.629,2.325 -0.669,2.46 -0.83,2.993 -1.003,3.52 -1.18,4.046 c -0.955,2.853 -2.179,5.634 -3.653,8.312 -3.191,-1.502 -6.751,-2.345 -10.524,-2.345 -13.925,0 -25.317,11.393 -25.317,25.635 0,0.716 0.037,1.424 0.093,2.126 -0.357,0.06 -0.712,0.129 -1.071,0.183 -0.104,0.015 -0.208,0.033 -0.312,0.048 -0.743,0.107 -1.491,0.195 -2.244,0.269 -0.066,0.006 -0.132,0.012 -0.198,0.018 -1.565,0.148 -3.144,0.247 -4.747,0.247 -5.761,0 -11.294,-0.98 -16.457,-2.76 -0.146,-0.05 -0.293,-0.098 -0.438,-0.149 -0.508,-0.18 -1.009,-0.372 -1.509,-0.568 -0.324,-0.126 -0.648,-0.25 -0.97,-0.383 -0.32,-0.133 -0.636,-0.274 -0.953,-0.413 -0.493,-0.216 -0.984,-0.435 -1.472,-0.667 -0.139,-0.066 -0.275,-0.136 -0.414,-0.204 -4.91,-2.393 -9.515,-5.612 -13.589,-9.685 -2.929,-2.929 -5.409,-6.137 -7.466,-9.531 -0.013,-0.023 -0.027,-0.045 -0.041,-0.067 -0.367,-0.608 -0.72,-1.221 -1.059,-1.84 -0.068,-0.124 -0.138,-0.246 -0.206,-0.371 -0.262,-0.488 -0.512,-0.981 -0.757,-1.477 -3.385,-6.787 -5.301,-14.43 -5.301,-22.516 0,-9.53 2.651,-18.452 7.248,-26.073 -0.005,-10e-4 -0.009,-0.002 -0.013,-0.003 0.823,-1.371 1.737,-2.702 2.701,-4.007 0.064,-0.085 0.125,-0.173 0.189,-0.258 0.449,-0.6 0.916,-1.191 1.395,-1.775 0.043,-0.052 0.086,-0.103 0.129,-0.155 1.002,-1.211 2.048,-2.397 3.181,-3.531 4.074,-4.073 8.679,-7.292 13.589,-9.685 0.139,-0.067 0.275,-0.137 0.414,-0.204 0.488,-0.232 0.979,-0.451 1.472,-0.666 0.317,-0.14 0.633,-0.28 0.953,-0.413 0.322,-0.133 0.646,-0.258 0.97,-0.384 0.5,-0.196 1.001,-0.388 1.509,-0.568 0.145,-0.051 0.292,-0.098 0.438,-0.148 5.163,-1.781 10.696,-2.761 16.457,-2.761 5.76,0 11.293,0.98 16.457,2.761 0.146,0.05 0.292,0.097 0.438,0.148 0.507,0.18 1.008,0.372 1.508,0.568 0.324,0.126 0.649,0.251 0.971,0.384 0.32,0.133 0.635,0.273 0.952,0.413 0.493,0.215 0.985,0.434 1.472,0.666 0.139,0.067 0.276,0.137 0.414,0.204 4.91,2.393 9.516,5.612 13.589,9.685 4.073,4.073 7.292,8.678 9.684,13.587 0.068,0.139 0.139,0.278 0.206,0.418 0.232,0.486 0.45,0.977 0.665,1.469 0.14,0.316 0.281,0.634 0.415,0.955 0.132,0.321 0.256,0.644 0.382,0.967 0.196,0.501 0.389,1.004 0.569,1.512 0.051,0.145 0.098,0.29 0.148,0.436 1.78,5.164 2.761,10.696 2.761,16.458 0,4.144 -0.515,8.166 -1.461,12.022 C 0.011,-0.047 0.006,-0.023 0,0" />
              </g>
              <g
                 id="g4553"
                 transform="translate(286.7773,367.4707)">
                <path
                   id="path4551"
                   style="fill:#ffffff;fill-opacity:1;fill-rule:nonzero;stroke:none"
                   d="m 0,0 c 7.041,0 9.957,3.414 9.957,8.107 0,4.054 -2.987,8.18 -9.886,8.18 H -7.971 V 0 Z m -8.042,23.826 h 9.174 c 3.414,0 4.766,2.275 4.766,4.338 0,2.418 -1.992,4.337 -5.548,4.337 H -8.042 Z M 11.57,22.83 c 4.54,-1.03 9.126,-7.894 9.126,-15.789 0,-8.32 -5.263,-15.859 -15.149,-15.859 H -17.927 V 41.32 H 4.119 c 5.974,0 11.457,-4.906 11.503,-11.094 C 15.656,25.61 12.92,22.523 11.57,22.83" />
              </g>
              <path
                 id="path4555"
                 style="fill:#ffffff;fill-opacity:1;fill-rule:nonzero;stroke:none"
                 d="m 285,400 h -8 v 15 h 8 z" />
              <path
                 id="path4557"
                 style="fill:#ffffff;fill-opacity:1;fill-rule:nonzero;stroke:none"
                 d="m 285,352 h -8 v 15 h 8 z" />
            </g>
          </g>
        </g>
      </g>
    </g>
  </g>
</svg>
